<svg xmlns="http://www.w3.org/2000/svg" width="23.184" height="16" viewBox="0 0 23.184 16"><g transform="translate(0 0)"><path d="M315.641,353.768a2.184,2.184,0,0,0,.678-1.577,2.278,2.278,0,0,0-2.32-2.232,2.342,2.342,0,0,0-1.937,1.005c-.11.106-9.347,11.06-9.433,11.185a2.184,2.184,0,0,0-.678,1.576,2.278,2.278,0,0,0,2.32,2.233,2.341,2.341,0,0,0,1.937-1.005C306.318,364.847,315.554,353.894,315.641,353.768Z" transform="translate(-301.95 -349.959)" fill="#f77f00"/><path d="M367.815,385.316a2.32,2.32,0,1,0-3.579-2.915c-.111.111-4.962,6.091-5.049,6.223a2.32,2.32,0,1,0,3.579,2.915C362.877,391.427,367.729,385.447,367.815,385.316Z" transform="translate(-349.409 -376.584)" fill="#333"/><g transform="translate(18.544 0)"><path d="M419.706,352.279a2.32,2.32,0,1,1-2.32-2.32A2.32,2.32,0,0,1,419.706,352.279Z" transform="translate(-415.066 -349.959)" fill="#ff9e37"/></g><g transform="translate(0 0)"><path d="M306.59,352.279a2.32,2.32,0,1,1-2.32-2.32A2.32,2.32,0,0,1,306.59,352.279Z" transform="translate(-301.95 -349.959)" fill="#333"/></g></g></svg>