<svg xmlns="http://www.w3.org/2000/svg" width="761" height="485" viewBox="0 0 761 485"><g transform="translate(-821 -122)"><g transform="translate(0 -18)"><rect width="666" height="1" transform="translate(916 160)" fill="#d26b00"/><rect width="526" height="1" transform="translate(1056 215)" fill="#d26b00"/><rect width="489" height="1" transform="translate(1093 270)" fill="#d26b00"/><rect width="733" height="1" transform="translate(849 325)" fill="#d26b00"/><rect width="499" height="1" transform="translate(1083 380)" fill="#d26b00"/><rect width="666" height="1" transform="translate(916 435)" fill="#d26b00"/><rect width="761" height="1" transform="translate(821 490)" fill="#d26b00"/><rect width="526" height="1" transform="translate(1056 545)" fill="#d26b00"/><rect width="754" height="1" transform="translate(828 600)" fill="#d26b00"/></g><g transform="translate(1712 -337) rotate(90)"><rect width="361" height="1" transform="translate(521 458)" fill="#d26b00"/><rect width="485" height="1" transform="translate(459 192)" fill="#d26b00"/><rect width="485" height="1" transform="translate(459 259)" fill="#d26b00"/><rect width="390" height="1" transform="translate(506 326)" fill="#d26b00"/><rect width="275" height="1" transform="translate(564 393)" fill="#d26b00"/><rect width="485" height="1" transform="translate(459 527)" fill="#d26b00"/><rect width="225" height="1" transform="translate(589 594)" fill="#d26b00"/><rect width="228" height="1" transform="translate(587 661)" fill="#d26b00"/><rect width="390" height="1" transform="translate(506 728)" fill="#d26b00"/></g></g></svg>