<svg xmlns="http://www.w3.org/2000/svg" xmlns:xlink="http://www.w3.org/1999/xlink" width="39" height="39" viewBox="0 0 39 39"><defs><linearGradient id="a" x1="0.056" y1="0.102" x2="0.661" y2="0.807" gradientUnits="objectBoundingBox"><stop offset="0.156" stop-color="#ffdf2e"/><stop offset="0.451" stop-color="#ffcb14"/><stop offset="0.65" stop-color="#ffbc00"/></linearGradient></defs><g transform="translate(-1 -0.667)"><circle cx="19.5" cy="19.5" r="19.5" transform="translate(1 0.667)" fill="#1c2951"/><g transform="translate(5.633 6.061)"><path d="M22.062,32.678A28.389,28.389,0,0,1,17.754,33H6.7l4.064-17.394h4.47l.975-4.145h4.552L21.737,7.4h2.195c.732,0,2.032.081,2.276.081,7.153.65,11.542,6.1,10,12.761C34.741,26.257,28.727,31.3,22.062,32.678ZM22.793,20.4a2.32,2.32,0,0,0,1.382-1.219,1.33,1.33,0,0,0-.488-1.544,1.562,1.562,0,0,0-.975-.325H16.779l-2.357,10h4.47a16.716,16.716,0,0,0,2.926-.163l-1.544-4.633H17.185l.406-1.707h3.332A9.639,9.639,0,0,0,22.793,20.4ZM17.754,13.09l-.569,2.438h5.527a5.56,5.56,0,0,1,1.788.163,2.538,2.538,0,0,1,1.951,1.951,3.643,3.643,0,0,1-.488,2.52,5.619,5.619,0,0,1-3.332,2.276l1.3,3.983a9.83,9.83,0,0,0,5.69-6.258,5.413,5.413,0,0,0-4.064-6.746,7.83,7.83,0,0,0-1.788-.244H17.754Zm7.315-4.064H23.2l-.569,2.357h1.057a12.965,12.965,0,0,1,3.007.406,7.307,7.307,0,0,1,4.8,8.372c-.975,4.227-4.8,7.722-9.835,8.616a11.516,11.516,0,0,1-2.276.163H12.146l2.763-11.7h-2.6L9.057,31.377s5.527-.163,8.616-.163a24.235,24.235,0,0,0,5.527-.65C28.32,28.939,33.034,24.875,34.172,20,35.554,14.065,31.571,9.351,25.069,9.026Z" transform="translate(-6.7 -7.4)" fill-rule="evenodd" fill="url(#a)"/></g></g></svg>