<svg xmlns="http://www.w3.org/2000/svg" width="25" height="25" viewBox="0 0 25 25"><path d="M31,27.528A3.472,3.472,0,0,1,27.528,31H9.472A3.472,3.472,0,0,1,6,27.528V9.472A3.472,3.472,0,0,1,9.472,6H27.528A3.472,3.472,0,0,1,31,9.472Z" transform="translate(-6 -6)" fill="#3f51b5"/><path d="M30.894,21.333H28.556v9.028H25.083V21.333H23V18.556h2.083V16.882C25.085,14.446,26.1,13,28.967,13h2.367v2.778H29.745c-1.117,0-1.19.417-1.19,1.2v1.581h2.778Z" transform="translate(-11.194 -8.139)" fill="#fff"/></svg>