<svg xmlns="http://www.w3.org/2000/svg" width="62.601" height="73.315" viewBox="0 0 62.601 73.315"><g transform="translate(-487.522 -1892.072)"><path d="M176.391,112.818V95.074h1.341v17.744L199.9,92.23l-8.187-7.214.887-1.006,7.888,6.95,7.87-33.314-15.5,8.625-.652-1.172,15.866-8.828L177.731,39.5V57.647H176.39V39.5L146.048,56.271,161.911,65.1l-.652,1.172-15.5-8.624,7.894,33.414,8.006-7.053.887,1.006-8.26,7.277Zm.637-51.415,11.249,6.456.033,12.969-11.216,6.515-11.249-6.457-.033-12.969Z" transform="translate(341.762 1852.569)" fill="#68dbff"/><path d="M295.3,215.338l9.876-5.737-.029-11.422-9.907-5.685-9.876,5.737.029,11.421Zm-.029-16.912a5.491,5.491,0,1,1-5.491,5.491A5.5,5.5,0,0,1,295.274,198.427Z" transform="translate(223.55 1723.024)" fill="#ff7917"/><path d="M327.072,248.254a4.15,4.15,0,1,0-4.15-4.15A4.154,4.154,0,0,0,327.072,248.254Z" transform="translate(191.751 1682.838)" fill="#ff7917"/></g></svg>