<svg xmlns="http://www.w3.org/2000/svg" xmlns:xlink="http://www.w3.org/1999/xlink" width="48.62" height="67.632" viewBox="0 0 48.62 67.632"><defs><linearGradient id="a" x1="0.5" x2="0.5" y2="1" gradientUnits="objectBoundingBox"><stop offset="0" stop-color="#f77f00"/><stop offset="1" stop-color="#6dd7f6"/></linearGradient></defs><path d="M291.821,202.51v-5.469a4.544,4.544,0,1,0-9.087,0v5.343h-4.089v-5.343a4.544,4.544,0,1,0-9.087,0v5.343h-8.633a4.544,4.544,0,1,0,0,9.087h2.045V241.92h-2.045a4.544,4.544,0,1,0,0,9.087h8.633v4.579a4.544,4.544,0,1,0,9.087,0v-4.579h4.089v4.579a4.544,4.544,0,1,0,9.087,0v-4.706a14.33,14.33,0,0,0,9.207-24.186,14.329,14.329,0,0,0-9.207-24.184Zm-1.25,39.411H272.056V231.241h18.519a5.34,5.34,0,0,1,0,10.681Zm0-19.768H272.056v-10.68h18.519a5.34,5.34,0,1,1,0,10.68Z" transform="translate(-256.38 -192.498)" fill="url(#a)"/></svg>