<svg xmlns="http://www.w3.org/2000/svg" width="156" height="40" viewBox="0 0 156 40"><g transform="translate(-1189 -756)"><path d="M25.556,11.685A10,10,0,0,0,20,10V0A20,20,0,1,1,0,20H10a10,10,0,1,0,15.556-8.315Z" transform="translate(1189 756)" fill="#726e54" fill-rule="evenodd"/><path d="M10,0a10,10,0,0,1-.761,3.827A10,10,0,0,1,7.071,7.071,10,10,0,0,1,3.827,9.239,10,10,0,0,1,0,10V20a20,20,0,0,0,7.654-1.522,20,20,0,0,0,6.488-4.335,20,20,0,0,0,4.335-6.488A20,20,0,0,0,20,0Z" transform="translate(1189 756)" fill="#726e54" fill-rule="evenodd"/><text transform="translate(1239 787)" fill="#726e54" font-size="27" font-family="Inter-Bold, Inter" font-weight="700" letter-spacing="0.03em"><tspan x="0" y="0">DGCoin</tspan></text></g></svg>