<svg xmlns="http://www.w3.org/2000/svg" xmlns:xlink="http://www.w3.org/1999/xlink" width="59.303" height="70" viewBox="0 0 59.303 70"><defs><linearGradient id="a" x1="0.5" y1="0.229" x2="0.5" y2="1" gradientUnits="objectBoundingBox"><stop offset="0" stop-color="#ff7917"/><stop offset="1" stop-color="#68dbff"/></linearGradient></defs><path d="M372.355,247.7a66.178,66.178,0,0,1-6.343-7.361c-3.366-5,3.536-4.431,6.227-3.4,4.073,1.551,5.348,1.861,9.975,1.2,3.972-.57,6.1-2.678,9.484-3.357,6.961-1.39,5.557,2.8,2.012,6.765-1.8,2.012-4.545,4.857-6.033,6.281s-1.707,1.42-3.69,1.44-5.724.058-7.707.1-2.211.071-3.923-1.656ZM367.1,304.5c-9.8,0-15.879-6.674-15.879-16.48v-4.788c0-13.883,12.809-27.262,23.355-31.534.09-.011.182-.021.278-.028l-1.793,5.692a1.2,1.2,0,0,0,2.294.714l2.067-6.565,5.549,10.639a1.2,1.2,0,0,0,2.131-1.1l-4.947-9.631c1.99-.045,4.154-.068,6.113-.068,10.707,3.855,24.257,17.6,24.257,31.88v4.788c0,9.806-6.076,16.48-15.879,16.48-11.458-2.932-16.09-2.932-27.546,0Zm5.162-17.537,4.172-.416c.341,1.891,1.153,3.154,2.6,3.715v-5.905c-3.1-.884-5.975-2.432-5.975-6.173,0-3.6,2.833-5.348,5.975-5.8v-2.4h3.674v2.408c3.395.482,6.01,2.342,6.149,6.348l-4.288.15a3.2,3.2,0,0,0-1.861-2.757v4.729c3.685.945,6.771,2.34,6.771,6.8,0,4.185-3.213,6.025-6.771,6.449v2.378H379.04v-2.406c-3.825-.528-6.251-2.738-6.774-7.119Zm10.447,3.428c1.317-.349,2.481-1.166,2.481-2.7,0-1.283-1.163-1.972-2.481-2.41Zm-3.674-14.375c-.992.26-1.891.81-1.891,1.881,0,.95.868,1.56,1.891,1.971Z" transform="translate(-351.226 -234.5)" fill-rule="evenodd" fill="url(#a)"/></svg>