<svg xmlns="http://www.w3.org/2000/svg" width="167" height="38.446" viewBox="0 0 167 38.446"><g transform="translate(-680 -757.446)"><path d="M0,14.5A14.5,14.5,0,0,1,25.4,4.932c4.822,5.413,8.809,5.128,13.043,1.132a11.6,11.6,0,1,1,0,16.872c-4.233-4-8.219-4.281-13.039,1.128A14.5,14.5,0,0,1,0,14.5Z" transform="translate(680 766.892)" fill="#a59e6d"/><path d="M0,14.5A14.5,14.5,0,0,1,25.4,4.932c4.822,5.413,8.809,5.128,13.043,1.132a11.6,11.6,0,1,1,0,16.872c-4.233-4-8.219-4.281-13.039,1.128A14.5,14.5,0,0,1,0,14.5Z" transform="translate(687 757.446)" fill="#726e54"/><text transform="translate(758 785)" fill="#726e54" font-size="27" font-family="Inter-Bold, Inter" font-weight="700" letter-spacing="0.08em"><tspan x="0" y="0">Invert</tspan></text></g></svg>