<svg xmlns="http://www.w3.org/2000/svg" width="213.936" height="45.892" viewBox="0 0 213.936 45.892"><g transform="translate(-380.064 -745.054)"><path d="M29.566,3.862a4.3,4.3,0,0,0-6.076,0L9.49,17.87l-.012,0-.044,0,.054.026c-2.456.257-3.5,1-3.51,1.943a2.118,2.118,0,0,0,.415,1.129l-.013.013c2.233,3.368,13.294,7.81,21.119,4.8C21.633,28.714,7.822,29.3,3.765,23.6a4.288,4.288,0,0,0-1.111,3.409c1.072,5.907,13.053,7.518,25.035-1.04l2.593,2.593c-3.226,3.315-7.992,22.568-.911,19.628.168-.114.311-.216.5-.363l.316-.3-.054.013L49.1,29.64a4.3,4.3,0,0,0,.088-6.163ZM27.5,9.7,28.149,7.1,28.8,9.7l1.945.648-1.945.648-.648,2.593L27.5,10.994l-1.945-.648Zm-8.023,8.464.432-1.729.432,1.729,1.3.432-1.3.432-.432,1.729-.432-1.729-1.3-.432Zm15.05,14.58L34.1,34.469l-1.3.432,1.3.432.432,1.728.432-1.728,1.3-.432-1.3-.432Z" transform="translate(377.438 742.45)" fill="#726e54" fill-rule="evenodd"/><path d="M47.963,5.251a13.662,13.662,0,0,0-10.5,4.916L28.234,21.248l5.332-8-8.851,3.793a1.729,1.729,0,0,0-.541,2.811L27.022,22.7l-1.454,1.745,3.2,3.2,1.745-1.454,2.848,2.848a1.728,1.728,0,0,0,2.811-.541l3.793-8.851-8,5.332,11.081-9.234A13.661,13.661,0,0,0,47.963,5.251Zm-8.8,8.8a2.262,2.262,0,1,0,0-3.2A2.262,2.262,0,0,0,39.165,14.05Z" transform="translate(380.037 742.776)" fill="#a59e6d" fill-rule="evenodd"/><path d="M3.548,21.161c2.118,7.258,15,6.879,23.834,2.33C21.465,26.448,7.468,27.012,3.548,21.161Z" transform="translate(377.552 744.742)" fill="#424242" opacity="0.6"/><path d="M26.834,45.052c-5.967,2.477-3.522-10.8-.675-17.028-2.076,5.532-3.847,17.728,1.495,16.367l-.316.3C27.145,44.836,27,44.938,26.834,45.052Z" transform="translate(379.974 745.589)" fill="#424242" opacity="0.6"/><text transform="translate(441 779)" fill="#726e54" font-size="27" font-family="Inter-Bold, Inter" font-weight="700" letter-spacing="0.03em"><tspan x="0" y="0">Coinrocket</tspan></text></g></svg>