<svg xmlns="http://www.w3.org/2000/svg" xmlns:xlink="http://www.w3.org/1999/xlink" width="70" height="70" viewBox="0 0 70 70"><defs><linearGradient id="a" x1="0.248" y1="0.24" x2="0.5" y2="1" gradientUnits="objectBoundingBox"><stop offset="0" stop-color="#f77f00"/><stop offset="1" stop-color="#5fc8e9"/></linearGradient></defs><path d="M194.6,89.6a35,35,0,1,0,35,35,35.1,35.1,0,0,0-35-35Zm0,66.912a31.37,31.37,0,0,1-20.279-7.309,35.575,35.575,0,0,0,1.75-7.1c0-2.059-4.117-2.059-5.147-3.088s-1.03-4.117-2.059-5.147c-.824-.824-4.117-2.265-5.558-2.78a33.036,33.036,0,0,1-.618-6.485,23.324,23.324,0,0,1,.1-2.676c2.265-1.132,7.1-3.809,7.1-4.53,0-1.03-2.059-6.177-2.059-7.206s2.059-3.088,3.088-3.088,1.03,4.117,2.059,4.117,4.117-6.177,4.117-7.206c0-.926-2.265-3.294-2.882-3.912a31.688,31.688,0,0,1,35.617-3.5c-1.853,1.132-5.25,3.294-5.971,3.294h-6.177c-1.03,0-5.868,4.426-5.147,5.147,1.03,1.03,4.117-1.03,5.147-1.03s1.03,3.088,0,4.117-7.206,1.03-8.235,1.03-3.088,4.117-3.088,5.147a2.214,2.214,0,0,0,2.059,2.059c1.03,0,6.177-4.117,7.206-4.117s3.088,2.059,4.117,2.059,4.117-3.088,5.147-2.059-3.088,3.088-3.088,4.117,1.03,1.03,2.059,1.03,1.03,2.059,0,2.059h-7.206c-1.03,0-2.059-2.059-3.088-2.059s-11.324,4.117-11.324,5.147v6.177c0,1.03,4.117,4.117,5.147,4.117s3.088-1.03,4.117-1.03,4.117,5.147,4.117,6.177-1.03,2.059-1.03,3.088a7.8,7.8,0,0,0,2.059,4.117c1.03,1.03,3.088,2.059,4.117,1.03s6.177-6.177,6.177-7.206v-3.088c0-1.03,3.6-2.882,3.088-4.117-.309-.721-2.059,0-3.088-1.03s-1.03-9.264-1.03-9.264,2.059,6.177,3.088,7.206,4.117-2.059,4.117-3.088-2.059-5.147-2.059-5.147l2.059,2.059c1.03,1.03,2.059,0,3.088,0s3.088,7.206,4.117,7.206,1.03-3.088,2.059-4.117c.721-.721,2.78-.926,4.117-1.03A31.933,31.933,0,0,1,194.6,156.513Z" transform="translate(-159.6 -89.602)" fill="url(#a)"/></svg>