<svg xmlns="http://www.w3.org/2000/svg" width="185" height="40" viewBox="0 0 185 40"><g transform="translate(-933 -755.892)"><text transform="translate(983 784)" fill="#726e54" font-size="27" font-family="Inter-Bold, Inter" font-weight="700" letter-spacing="0.03em"><tspan x="0" y="0">Power-up</tspan></text><path d="M20.684,40.138a20,20,0,1,0-20-20A20,20,0,0,0,20.684,40.138ZM26.923,9.455c.3-1.079-.743-1.717-1.7-1.036L11.877,17.928c-1.037.739-.874,2.21.245,2.21h3.515v-.027h6.85L16.905,22.08l-2.46,8.741c-.3,1.079.743,1.717,1.7,1.036l13.347-9.508c1.037-.739.874-2.21-.245-2.21h-5.33Z" transform="translate(932.316 755.754)" fill="#726e54" fill-rule="evenodd"/></g></svg>