<svg xmlns="http://www.w3.org/2000/svg" width="25" height="25" viewBox="0 0 25 25"><path d="M31,27.528A3.472,3.472,0,0,1,27.528,31H9.472A3.472,3.472,0,0,1,6,27.528V9.472A3.472,3.472,0,0,1,9.472,6H27.528A3.472,3.472,0,0,1,31,9.472Z" transform="translate(-6 -6)" fill="#0288d1"/><path d="M12,16.861h3.472V28.667H12Zm1.726-1.389h-.019A1.662,1.662,0,0,1,12,13.735,1.67,1.67,0,0,1,13.746,12a1.665,1.665,0,0,1,1.726,1.735A1.672,1.672,0,0,1,13.726,15.472ZM28.667,28.667H25.194V22.348c0-1.526-.851-2.568-2.217-2.568a1.991,1.991,0,0,0-1.88,1.382,5.009,5.009,0,0,0-.07,1.255v6.25H17.556V16.861h3.472v1.817a3.512,3.512,0,0,1,3.29-1.817c2.485,0,4.348,1.563,4.348,5.051v6.754Z" transform="translate(-7.833 -7.833)" fill="#fff"/></svg>