<svg xmlns="http://www.w3.org/2000/svg" width="174.296" height="32.497" viewBox="0 0 174.296 32.497"><g transform="translate(-680.904 154)"><g transform="translate(680.904 -154)"><path d="M328.7,357.7a4.533,4.533,0,1,0-7-5.694c-.215.216-18.265,22.463-18.434,22.718a4.533,4.533,0,1,0,7,5.694C310.486,380.2,328.535,357.951,328.7,357.7Z" transform="translate(-301.95 -349.959)" fill="#f77f00"/><path d="M376.7,389.095a4.534,4.534,0,1,0-6.994-5.7c-.217.217-9.7,11.9-9.867,12.161a4.534,4.534,0,1,0,6.994,5.7C367.046,401.038,376.527,389.352,376.7,389.095Z" transform="translate(-339.498 -370.802)" fill="#333"/><g transform="translate(38.02 0)"><path d="M424.134,354.493a4.534,4.534,0,1,1-4.534-4.534A4.534,4.534,0,0,1,424.134,354.493Z" transform="translate(-415.066 -349.959)" fill="#ff9e37"/></g><g transform="translate(0 0)"><path d="M311.018,354.493a4.534,4.534,0,1,1-4.534-4.534A4.534,4.534,0,0,1,311.018,354.493Z" transform="translate(-301.95 -349.959)" fill="#333"/></g></g><path d="M14.645-35.637a2.539,2.539,0,0,0-.372-.848,2.433,2.433,0,0,0-.63-.626,2.792,2.792,0,0,0-.871-.39,4.208,4.208,0,0,0-1.084-.132,3.754,3.754,0,0,0-2.163.608,3.774,3.774,0,0,0-1.36,1.75A7.283,7.283,0,0,0,7.7-32.517a7.824,7.824,0,0,0,.444,2.793,3.722,3.722,0,0,0,1.324,1.778,3.714,3.714,0,0,0,2.186.617,4.794,4.794,0,0,0,1.918-.336,2.457,2.457,0,0,0,1.147-.952,2.705,2.705,0,0,0,.381-1.451l.871.091H11.724v-3.591h8.235v2.576a8.318,8.318,0,0,1-1.075,4.34A7.146,7.146,0,0,1,15.928-23.9a9.385,9.385,0,0,1-4.312.957,9.556,9.556,0,0,1-4.761-1.152,8.061,8.061,0,0,1-3.2-3.283,10.55,10.55,0,0,1-1.147-5.07,11.039,11.039,0,0,1,.7-4.081,8.56,8.56,0,0,1,1.954-3.006A8.367,8.367,0,0,1,8.06-41.391a9.732,9.732,0,0,1,3.519-.63,9.766,9.766,0,0,1,3.07.467,8.168,8.168,0,0,1,2.512,1.324A6.961,6.961,0,0,1,18.925-38.2a6.434,6.434,0,0,1,.816,2.567Zm7.673,12.443V-41.767h8.017a8.2,8.2,0,0,1,3.619.753,5.636,5.636,0,0,1,2.412,2.168,6.4,6.4,0,0,1,.862,3.392,6.076,6.076,0,0,1-.884,3.365,5.491,5.491,0,0,1-2.476,2.068,9.177,9.177,0,0,1-3.714.7H25.364v-3.918h3.773a4.589,4.589,0,0,0,1.519-.222,1.916,1.916,0,0,0,.97-.712,2.2,2.2,0,0,0,.34-1.279,2.28,2.28,0,0,0-.34-1.3,1.986,1.986,0,0,0-.97-.744,4.271,4.271,0,0,0-1.519-.24H27.36v14.547ZM33.2-31.719l4.643,8.525H32.366l-4.535-8.525Zm24.16-.762a10.457,10.457,0,0,1-1.206,5.228,8.057,8.057,0,0,1-3.256,3.22,9.561,9.561,0,0,1-4.571,1.093,9.509,9.509,0,0,1-4.584-1.1A8.1,8.1,0,0,1,40.5-27.27a10.449,10.449,0,0,1-1.2-5.21,10.49,10.49,0,0,1,1.2-5.228,8.036,8.036,0,0,1,3.247-3.22,9.572,9.572,0,0,1,4.584-1.093A9.561,9.561,0,0,1,52.9-40.928a8.057,8.057,0,0,1,3.256,3.22A10.457,10.457,0,0,1,57.361-32.48Zm-5.188,0a7.9,7.9,0,0,0-.44-2.816,3.621,3.621,0,0,0-1.3-1.741,3.612,3.612,0,0,0-2.109-.594,3.612,3.612,0,0,0-2.109.594,3.621,3.621,0,0,0-1.3,1.741,7.9,7.9,0,0,0-.44,2.816,7.9,7.9,0,0,0,.44,2.816,3.621,3.621,0,0,0,1.3,1.741,3.612,3.612,0,0,0,2.109.594,3.612,3.612,0,0,0,2.109-.594,3.621,3.621,0,0,0,1.3-1.741A7.9,7.9,0,0,0,52.173-32.48Zm11.064,9.287L57.76-41.767h5.623L65.922-30.34h.145l3.011-11.427H73.5L76.515-30.3h.145L79.2-41.767h5.623L79.344-23.194H74.52L71.363-33.569h-.145L68.062-23.194ZM86.455-41.767H92.73l4.317,10.52h.218l4.317-10.52h6.276v18.574h-4.934V-33.932h-.145L98.644-23.339H95.669L91.533-34h-.145v10.81H86.455Zm23.8,18.574V-41.767h13.386V-37.7h-8.344v3.192h7.654v4.063h-7.654v3.192H123.6v4.063Z" transform="translate(731.562 -105.267)" fill="#333"/></g></svg>