<svg xmlns="http://www.w3.org/2000/svg" width="117.261" height="36" viewBox="0 0 117.261 36"><g transform="translate(-302 -22)"><path d="M15.056-14.129a2.884,2.884,0,0,0-.422-.963,2.763,2.763,0,0,0-.716-.711,3.17,3.17,0,0,0-.989-.443,4.779,4.779,0,0,0-1.231-.149,4.263,4.263,0,0,0-2.456.69A4.285,4.285,0,0,0,7.7-13.717a8.27,8.27,0,0,0-.53,3.131,8.885,8.885,0,0,0,.5,3.172A4.227,4.227,0,0,0,9.176-5.4a4.218,4.218,0,0,0,2.482.7,5.443,5.443,0,0,0,2.178-.381,2.791,2.791,0,0,0,1.3-1.081,3.072,3.072,0,0,0,.433-1.648l.989.1H11.74v-4.078h9.351v2.925a9.445,9.445,0,0,1-1.22,4.928A8.114,8.114,0,0,1,16.513-.8a10.657,10.657,0,0,1-4.9,1.086A10.851,10.851,0,0,1,6.21-1.02,9.153,9.153,0,0,1,2.58-4.748a11.98,11.98,0,0,1-1.3-5.757,12.535,12.535,0,0,1,.8-4.634,9.721,9.721,0,0,1,2.219-3.414A9.5,9.5,0,0,1,7.58-20.664a11.051,11.051,0,0,1,4-.716,11.089,11.089,0,0,1,3.486.53,9.276,9.276,0,0,1,2.853,1.5,7.9,7.9,0,0,1,2,2.3,7.305,7.305,0,0,1,.927,2.914ZM28.118,0V-21.091h9.1a9.308,9.308,0,0,1,4.109.855,6.4,6.4,0,0,1,2.739,2.461,7.266,7.266,0,0,1,.978,3.852,6.9,6.9,0,0,1-1,3.821,6.235,6.235,0,0,1-2.811,2.348,10.421,10.421,0,0,1-4.217.793H31.579v-4.449h4.284a5.211,5.211,0,0,0,1.725-.252,2.176,2.176,0,0,0,1.1-.808,2.5,2.5,0,0,0,.386-1.452A2.589,2.589,0,0,0,38.69-15.4a2.256,2.256,0,0,0-1.1-.844,4.85,4.85,0,0,0-1.725-.273H33.844V0ZM40.476-9.68,45.749,0h-6.22L34.38-9.68Zm31.785-.865a11.875,11.875,0,0,1-1.37,5.937,9.149,9.149,0,0,1-3.7,3.656A10.856,10.856,0,0,1,62,.288,10.8,10.8,0,0,1,56.8-.963a9.194,9.194,0,0,1-3.687-3.666,11.866,11.866,0,0,1-1.365-5.916,11.911,11.911,0,0,1,1.365-5.937A9.125,9.125,0,0,1,56.8-20.138,10.87,10.87,0,0,1,62-21.379a10.856,10.856,0,0,1,5.19,1.241,9.149,9.149,0,0,1,3.7,3.656A11.875,11.875,0,0,1,72.261-10.545Zm-5.891,0a8.973,8.973,0,0,0-.5-3.2A4.111,4.111,0,0,0,64.4-15.72,4.1,4.1,0,0,0,62-16.395a4.1,4.1,0,0,0-2.394.675,4.111,4.111,0,0,0-1.473,1.977,8.973,8.973,0,0,0-.5,3.2,8.973,8.973,0,0,0,.5,3.2A4.111,4.111,0,0,0,59.61-5.371,4.1,4.1,0,0,0,62-4.7,4.1,4.1,0,0,0,64.4-5.371a4.111,4.111,0,0,0,1.473-1.977A8.973,8.973,0,0,0,66.37-10.545Z" transform="translate(347 56)" fill="#333"/><g transform="translate(315 32)" fill="none" stroke="#f77f00" stroke-width="5"><circle cx="13" cy="13" r="13" stroke="none"/><circle cx="13" cy="13" r="10.5" fill="none"/></g><g transform="translate(302 22)" fill="none" stroke="#333" stroke-width="3"><circle cx="8" cy="8" r="8" stroke="none"/><circle cx="8" cy="8" r="6.5" fill="none"/></g></g></svg>