<svg xmlns="http://www.w3.org/2000/svg" xmlns:xlink="http://www.w3.org/1999/xlink" width="39" height="39" viewBox="0 0 39 39"><defs><clipPath id="a"><rect width="39" height="39" rx="19.5" transform="translate(1 1)" fill="#fff"/></clipPath></defs><g transform="translate(-1 -1)" clip-path="url(#a)"><path d="M19.81,39.619A19.81,19.81,0,1,0,0,19.81,19.81,19.81,0,0,0,19.81,39.619Z" transform="translate(0.69 0.69)" fill="#eff4f4"/><path d="M53.9,55.545l3.126,6.779,4.612-2.631V54.4Z" transform="translate(-36.526 -36.871)" fill="#2bbdf7"/><path d="M84.935,38.931l-2.879-1.083L78.9,37.6V53.942l4.643,2.631,3.714-7.429-2.321-7.088Z" transform="translate(-53.788 -25.271)" fill="#2891f9"/><path d="M94.952,37.6,93.9,40.231V56.573l4.612-2.631V37.6Z" transform="translate(-64.145 -25.271)" fill="#2bbdf7"/><path d="M83.542,29.1,78.9,31.731l4.643,2.631,4.612-2.631Z" transform="translate(-53.788 -19.402)" fill="#2b6def"/><path d="M33.066,45.431l-4.612-5.107L19.2,37.6V53.942l4.612,2.631L25.142,47.5l3.312.588,4.612,2.631Z" transform="translate(-12.566 -25.271)" fill="#2891f9"/><path d="M23.811,29.1,19.2,31.731l13.867,7.831,2.074-1.145,2.538-1.486Z" transform="translate(-12.566 -19.402)" fill="#2b6def"/><path d="M34.1,62.9V74.042l4.643-2.631v-5.85Z" transform="translate(-22.854 -42.74)" fill="#2bbdf7"/></g></svg>