<svg xmlns="http://www.w3.org/2000/svg" width="39" height="39" viewBox="0 0 39 39"><g transform="translate(-0.5 -0.5)"><circle cx="19.5" cy="19.5" r="19.5" transform="translate(0.5 0.5)" fill="#1c2951"/><g transform="translate(5.537 5.189)"><circle cx="14.463" cy="14.463" r="14.463" transform="translate(0 0.739)" fill="#fe0000"/><path d="M48.4,69.5a9.143,9.143,0,0,0-3.14.03c-5.338,1.3-3.329,3.468-4.49.422a3.47,3.47,0,0,0-.44-.271h0a.3.3,0,0,0-.126-.151h0a4.832,4.832,0,0,0-2.795-1.9h0c-.031-.06-.031-.06-.063-.06h0a5.429,5.429,0,0,0-4.647.875h0a6.288,6.288,0,0,0-1.225.965l-.157.121c-.063.06-.094.121-.157.181l-.188.181c-.377.513-.251.965-.5,1.538h0c-.063.06-.063.271-.157.181a10.665,10.665,0,0,0-.879-.784h0a7.551,7.551,0,0,0-6.249-1.387,5.137,5.137,0,0,0,1.413,3.438h0a14.64,14.64,0,0,0,2.92,2.594h0a18.946,18.946,0,0,0,2.135,1.3c.063.06.094.09.157.09h0c.031.03.063.03.094.06s.063.06.094.06a8.761,8.761,0,0,0,1.319.633v-.03h0v.03a.459.459,0,0,0,.188.06.242.242,0,0,0,.126.06h0l-.031.03c.031.03.031.03.063.03a1346.47,1346.47,0,0,1,.188.06.118.118,0,0,0,.094.03h0a1.327,1.327,0,0,0,.251.09c.063.03.094.03.126.06a1.6,1.6,0,0,0,.408.121c5.15,1.689,11.022-1.237,14.256-5.067h0c.031-.03.063-.06.063-.09a.683.683,0,0,0,.251-.332h0a1.4,1.4,0,0,0,.251-.422c.031-.03.031-.03.031-.06.031-.06.094-.121.094-.181h0A3.761,3.761,0,0,0,48.4,69.5ZM26.542,74.748Zm.816.6Zm0,0ZM30.341,71.7Zm.126-.06Zm.314,5.7Zm.471.211ZM32.7,68.536Zm.063,9.59Zm.063.03Zm1.319.241Zm.345.03Zm0,.06Zm2.732,0Zm.031,0Zm4.082-1.237Zm5.589-4.011Z" transform="translate(-21.372 -50.903)" fill="#fdfdfd"/><path d="M42.882,18.477c8.007-7.238,5.212,3.77,3.705,8.113a16.809,16.809,0,0,1,1.7,4.735,12.379,12.379,0,0,1,.188,2.383A7.764,7.764,0,0,0,42.1,35.185c-1.382,1.357-.534.211-1.915-1.508-2.795-3.71-8.29-2.111-9.671,1.96-.063.09-.094.332-.22.181a7.671,7.671,0,0,0-7.1-2.141,16.54,16.54,0,0,1,1.884-7c-1.1-3.046-2.386-7.359-1-10.435,1.319-.9,3.737,1.568,4.741,2.352,3.674,3.921,1.35,1.3,7.348,1.478C42.065,20.136,39.208,22.277,42.882,18.477Z" transform="translate(-21.384 -16.049)" fill="#fda000"/><path d="M30.9,28.341c-.3.271-.6.543-.875.814-.181.211-.392.392-.543.6-.211.241-.422.513-.633.784-.181.241-.332.483-.513.724-.03.03-.03.06-.06.06s-.03-.03-.03-.06c-.09-.271-.181-.543-.271-.844a6.9,6.9,0,0,1-.241-.844c-.09-.3-.151-.6-.241-.9a2.113,2.113,0,0,1-.09-.422c-.06-.241-.09-.483-.151-.724l-.09-.543c-.03-.121-.03-.241-.06-.362a5.829,5.829,0,0,1-.03-1.025,2.971,2.971,0,0,1,.06-.513c.03-.151,0-.151.181-.121a3.338,3.338,0,0,1,.784.211,4.176,4.176,0,0,1,1,.6,4.286,4.286,0,0,1,.724.754l.362.452c.121.151.211.3.332.452l.271.452.181.362C30.962,28.311,30.931,28.311,30.9,28.341Z" transform="translate(-24.085 -22.264)" fill="#fe7900"/><path d="M90.073,24.86a1.514,1.514,0,0,1,.06.362,1.991,1.991,0,0,1,.03.422c0,.211-.03.422-.03.633,0,.151-.03.271-.03.422a7.577,7.577,0,0,1-.121.814c-.06.241-.09.513-.151.784a7.553,7.553,0,0,1-.211.784c-.09.392-.211.754-.332,1.146-.06.151-.09.332-.151.452-.06.181-.121.332-.181.483-.03.06-.06.06-.06.03a6.457,6.457,0,0,0-.392-.573c-.09-.121-.151-.211-.241-.332-.121-.151-.211-.271-.332-.422-.151-.211-.332-.392-.513-.6s-.392-.392-.573-.6c-.151-.151-.332-.3-.513-.452-.09-.06-.09-.06-.03-.151a9.458,9.458,0,0,1,.543-.935c.181-.271.392-.543.6-.814a5.79,5.79,0,0,1,.422-.452,3.028,3.028,0,0,1,.6-.483,2.445,2.445,0,0,1,.543-.3,2.868,2.868,0,0,1,.724-.211.881.881,0,0,1,.271-.06C90.042,24.86,90.073,24.83,90.073,24.86Z" transform="translate(-64.433 -22.161)" fill="#fe7900"/><path d="M42.88,60.4a10.919,10.919,0,0,1-1.387-.181,9.518,9.518,0,0,1-1.779-.6,4.045,4.045,0,0,1-.844-.543.516.516,0,0,1-.211-.392,2.774,2.774,0,0,1,.06-1c0-.03.03-.06.03-.09.121-.3.09-.271.422-.241a4.292,4.292,0,0,1,1.357.483,20.247,20.247,0,0,1,2.051,1.206,3.107,3.107,0,0,1,.784.754.889.889,0,0,1,.151.392c.03.121-.03.151-.121.181A2.926,2.926,0,0,1,42.88,60.4Z" transform="translate(-31.894 -44.401)"/><path d="M77.865,58.065c0,.181-.03.362-.03.543a.157.157,0,0,1-.06.121,2.642,2.642,0,0,1-.724.573,7.35,7.35,0,0,1-2.111.754,5.674,5.674,0,0,1-1,.151,1.5,1.5,0,0,1-.633-.03c-.03-.03-.09-.03-.121-.06a.182.182,0,0,1-.09-.181,1.425,1.425,0,0,1,.3-.6,3.4,3.4,0,0,1,.875-.724c.573-.362,1.146-.724,1.749-1.025A5.574,5.574,0,0,1,77.2,57.13a1.593,1.593,0,0,1,.392-.03c.06,0,.09.03.09.06a1.42,1.42,0,0,1,.151.724A.383.383,0,0,1,77.865,58.065Z" transform="translate(-55.513 -44.235)"/><path d="M87.237,22.746l-.452.09a2.964,2.964,0,0,0-.483.151c-.06.03-.151.06-.211.09-.09.03-.151.09-.241.121a3.93,3.93,0,0,0-.452.3,3.228,3.228,0,0,0-.483.422,5.392,5.392,0,0,0-.392.422l-.271.362-.181.271c-.121.151-.211.362-.332.513-.09.151-.181.332-.271.483-.03.06-.06.121.03.151-.06,0-.06-.03-.09-.06a2.113,2.113,0,0,0-.3-.241c-.181-.121-.332-.241-.513-.362a1.276,1.276,0,0,1-.211-.151c-.06-.03-.09-.06-.151-.09a.093.093,0,0,1-.03-.06,1.312,1.312,0,0,1,.181-.211c.06-.06.121-.151.181-.181.09-.06.121-.151.211-.211a1.024,1.024,0,0,0,.181-.181c.09-.09.211-.181.3-.271.151-.121.271-.271.422-.392.121-.09.211-.181.332-.271a1.311,1.311,0,0,0,.211-.181c.181-.151.392-.3.6-.452.181-.121.392-.271.6-.392.151-.09.332-.181.483-.271a3.044,3.044,0,0,1,.452-.211c.121-.06.271-.09.392-.151.06-.03.06.03.09.06.06.151.121.271.181.422s.06.271.121.422C87.237,22.686,87.237,22.716,87.237,22.746Z" transform="translate(-61.597 -20.047)" fill="#fe8e00"/><path d="M30.911,26.073c.06-.06.06-.09-.03-.181a.9.9,0,0,1-.121-.241c0-.03-.03-.03-.06-.06-.09-.151-.181-.332-.271-.483a2.608,2.608,0,0,0-.211-.3,4.411,4.411,0,0,0-.271-.392,3.669,3.669,0,0,0-.452-.513c-.121-.09-.181-.211-.332-.3a2.83,2.83,0,0,0-.362-.271c-.121-.09-.241-.151-.362-.241L28.257,23a4.688,4.688,0,0,0-.694-.241,1.514,1.514,0,0,0-.362-.06.08.08,0,0,0-.09.09c0,.03,0,.03-.03.06-.03-.09.03-.151.03-.211A4.992,4.992,0,0,1,27.292,22c.03-.09.09-.151.121-.241.03-.06.06-.06.09-.06.211.09.392.151.6.241a2.492,2.492,0,0,1,.392.211l.362.181c.181.121.362.211.513.332l.362.271c.181.151.362.271.543.422.151.121.271.241.422.362a1.724,1.724,0,0,1,.241.211c.09.09.211.181.3.271l.271.271.543.543q.09.045,0,.09a2.028,2.028,0,0,1-.332.211,1.657,1.657,0,0,0-.271.211l-.362.271a1.312,1.312,0,0,1-.211.181C30.941,26.043,30.941,26.073,30.911,26.073Z" transform="translate(-24.095 -19.996)" fill="#fe8e00"/><path d="M43.334,48.391c-.06-.09-.151-.211-.181-.271a3.441,3.441,0,0,0-.332-.332,1.71,1.71,0,0,0-.392-.241,1.248,1.248,0,0,0-1.086.03,1.735,1.735,0,0,0-.724.6c-.03.03-.03.03-.03.06a1.091,1.091,0,0,0,.03,1.237.409.409,0,0,0,.332.211c.151.03.332.03.483.06a5.084,5.084,0,0,0,.965-.03,2.634,2.634,0,0,0,.663-.151c.121-.06.211-.09.271-.211A1,1,0,0,0,43.334,48.391Z" transform="translate(-33.13 -37.611)" fill="#f8fbf4"/><path d="M76.164,49.18a.453.453,0,0,0,.271.211,2.634,2.634,0,0,0,.663.151,5.244,5.244,0,0,0,.965.03,2.639,2.639,0,0,0,.483-.06.634.634,0,0,0,.332-.211,1.09,1.09,0,0,0,.03-1.237c-.03-.03-.03-.03-.03-.06a1.773,1.773,0,0,0-.724-.6,1.361,1.361,0,0,0-1.086-.03,1.71,1.71,0,0,0-.392.241,3.441,3.441,0,0,0-.332.332.856.856,0,0,0-.181.271A1.192,1.192,0,0,0,76.164,49.18Z" transform="translate(-57.597 -37.498)" fill="#f8fbf4"/><path d="M59.441,79.952a1.222,1.222,0,0,1-.151-.271.111.111,0,0,1-.03-.09V78.5c0-.06,0-.09-.09-.06a10.627,10.627,0,0,1-2.594.151,10.073,10.073,0,0,1-1.3-.151c-.06-.03-.09,0-.09.06.03.362.03.754.03,1.116,0,.151-.09.211-.151.332-.03.03-.03-.03-.06-.03a1.6,1.6,0,0,1-.241-.513,2.513,2.513,0,0,1-.121-.452c-.03-.06-.03-.06-.06-.06h-.06c-.151.03-.151.03-.181-.151a1.528,1.528,0,0,1-.06-.392.157.157,0,0,0-.06-.121,1.312,1.312,0,0,0-.211-.181c-.06-.03-.03-.09-.03-.121a.111.111,0,0,1,.09-.03h.935a.08.08,0,0,1,.09.09c0,.06.03.06.06.06.452.03.9.03,1.357.03.06,0,.09-.03.09-.06l.181-.271c.06-.09.09-.121.181-.09.06.03.06-.03.06-.06v-.784c0-.06-.03-.09-.06-.09a3.938,3.938,0,0,1-1.086-.633,1.611,1.611,0,0,1-.513-.754.589.589,0,0,1-.03-.211v-.663A.633.633,0,0,1,56,73.8h2.2a.8.8,0,0,1,.694.724,4.454,4.454,0,0,1-.03.633A1.52,1.52,0,0,1,58.3,76.3a2.316,2.316,0,0,1-.754.422c-.06.03-.06.03-.06.09v.814c0,.06.03.06.06.06a.146.146,0,0,1,.181.09l.181.271c.03.03.06.06.09.06.392,0,.754,0,1.146.03.06,0,.09-.06.121-.09.03-.06.06-.06.121-.06h.844c.09,0,.09.03.06.09a8.084,8.084,0,0,0-.211.814c-.03.06-.03.09-.09.09-.211,0-.211,0-.271.181C59.652,79.379,59.562,79.651,59.441,79.952Z" transform="translate(-42.371 -55.609)"/><path d="M61.646,90.5h1.086a.08.08,0,0,1,.09.09c0,.181,0,.181-.151.271s-.151.09-.271-.03c-.151-.121-.151-.121-.271.03-.09.09-.151.181-.211.241a.215.215,0,0,1-.332-.03c-.06-.09-.121-.211-.181-.3-.03-.06-.06-.06-.121-.06-.181,0-.181,0-.241.151-.06.09-.09.09-.151.06a1.617,1.617,0,0,1-.332-.151c-.06-.03-.06-.06-.06-.09,0-.181,0-.181.181-.181Z" transform="translate(-46.931 -67.245)"/></g></g></svg>