<svg xmlns="http://www.w3.org/2000/svg" width="25.002" height="20.139" viewBox="0 0 25.002 20.139"><path d="M31,11.381a10.4,10.4,0,0,1-2.949.807A5.124,5.124,0,0,0,30.307,9.37,10.3,10.3,0,0,1,27.048,10.6a5.116,5.116,0,0,0-8.735,4.64A14.618,14.618,0,0,1,7.741,9.928a5.021,5.021,0,0,0-.694,2.56,5.073,5.073,0,0,0,2.281,4.233A5.223,5.223,0,0,1,7,16.086v.06a5.1,5.1,0,0,0,4.113,4.987,5.1,5.1,0,0,1-1.348.183,5.45,5.45,0,0,1-.967-.094,5.139,5.139,0,0,0,4.79,3.532A10.365,10.365,0,0,1,7.22,26.93,10.147,10.147,0,0,1,6,26.858a14.659,14.659,0,0,0,7.864,2.281,14.429,14.429,0,0,0,14.6-14.468c0-.22-.007-.44-.017-.656A10.092,10.092,0,0,0,31,11.381" transform="translate(-5.997 -9)" fill="#03a9f4"/></svg>