<svg xmlns="http://www.w3.org/2000/svg" width="39" height="39" viewBox="0 0 39 39"><circle cx="19.5" cy="19.5" r="19.5" fill="#26a17b"/><path d="M22.134,17.383v0c-.151.007-.924.041-2.646.041-1.376,0-2.345-.029-2.686-.042v0c-5.3-.171-9.25-.848-9.25-1.658s3.954-1.486,9.25-1.659V16.71c.347.018,1.339.061,2.709.061,1.644,0,2.469-.05,2.623-.061V14.068c5.286.173,9.23.85,9.23,1.658s-3.944,1.485-9.23,1.658m0-3.591V11.427h7.375V7.819H9.426v3.608H16.8v2.366c-5.994.2-10.5,1.073-10.5,2.117s4.508,1.915,10.5,2.119V25.61h5.332V18.026c5.984-.2,10.482-1.073,10.482-2.117S28.118,14,22.134,13.793" transform="translate(0 3.852)" fill="#fff" fill-rule="evenodd"/></svg>